<svg width="16" height="16" viewBox="0 0 15 16" version="1.1" xmlns="http://www.w3.org/2000/svg" xmlns:xlink="http://www.w3.org/1999/xlink" xml:space="preserve" xmlns:serif="http://www.serif.com/" style="fill-rule:evenodd;clip-rule:evenodd;stroke-linejoin:round;stroke-miterlimit:2;"><path d="M9.57,0.004c0.307,0.01 0.409,0.026 0.652,0.106c0.158,0.052 0.369,0.144 0.469,0.204c0.1,0.061 0.265,0.193 0.365,0.294c0.1,0.101 0.233,0.272 0.293,0.38c0.061,0.109 0.131,0.252 0.156,0.319c0.026,0.066 0.06,0.196 0.108,0.454l0.281,0.167c0.192,0.117 0.371,0.255 0.534,0.409c0.204,0.195 0.276,0.289 0.371,0.484c0.075,0.148 0.126,0.307 0.153,0.47c0.018,0.125 0.025,0.312 0.015,0.417c-0.014,0.119 -0.044,0.237 -0.089,0.348c-0.047,0.104 -0.139,0.223 -0.265,0.342c-0.139,0.13 -0.285,0.226 -0.513,0.337c-0.175,0.086 -0.417,0.202 -0.538,0.258c-0.122,0.055 -0.221,0.111 -0.22,0.124c0,0.012 0.107,0.093 0.236,0.179c0.129,0.086 2.356,2.29 2.552,2.631l-0.044,0.189c-0.024,0.104 -0.053,0.291 -0.064,0.417c-0.012,0.131 -0.004,0.348 0.017,0.515c0.021,0.158 0.096,0.506 0.167,0.772c0.071,0.267 0.158,0.621 0.193,0.788c0.034,0.167 0.071,0.419 0.082,0.56c0.012,0.166 0.002,0.405 -0.028,0.667c-0.027,0.225 -0.087,0.545 -0.135,0.712c-0.062,0.203 -0.14,0.4 -0.232,0.591c-0.09,0.176 -0.19,0.348 -0.3,0.512c-0.11,0.154 -0.229,0.301 -0.356,0.44c-0.141,0.146 -0.29,0.283 -0.448,0.411c-0.189,0.144 -0.385,0.278 -0.588,0.402c-0.212,0.126 -0.432,0.239 -0.657,0.338c-0.219,0.09 -0.442,0.17 -0.667,0.242c-0.265,0.077 -0.532,0.144 -0.803,0.198c-0.282,0.056 -0.564,0.106 -0.848,0.151c-0.217,0.033 -0.598,0.084 -0.848,0.113c-0.351,0.042 -0.698,0.054 -1.515,0.055c-0.671,0.001 -1.194,-0.014 -1.424,-0.038c-0.248,-0.029 -0.496,-0.062 -0.743,-0.1c-0.289,-0.05 -0.577,-0.109 -0.863,-0.177c-0.267,-0.065 -0.648,-0.173 -0.848,-0.239c-0.2,-0.067 -0.521,-0.19 -0.712,-0.273c-0.19,-0.083 -0.377,-0.173 -0.561,-0.269c-0.13,-0.073 -0.257,-0.153 -0.379,-0.24c-0.113,-0.086 -0.224,-0.177 -0.33,-0.272c-0.115,-0.108 -0.222,-0.223 -0.321,-0.345c-0.099,-0.127 -0.193,-0.259 -0.281,-0.394c-0.085,-0.142 -0.161,-0.288 -0.228,-0.439c-0.057,-0.134 -0.138,-0.352 -0.181,-0.485c-0.042,-0.134 -0.101,-0.379 -0.131,-0.546c-0.04,-0.222 -0.055,-0.451 -0.054,-0.863c0.001,-0.489 0.011,-0.61 0.082,-0.947c0.05,-0.23 0.112,-0.458 0.188,-0.682c0.059,-0.162 0.193,-0.472 0.298,-0.689c0.105,-0.216 0.27,-0.516 0.367,-0.666c0.097,-0.15 0.259,-0.382 0.36,-0.515c0.102,-0.134 0.342,-0.405 0.534,-0.603c0.192,-0.198 0.485,-0.472 0.652,-0.608c0.166,-0.137 0.412,-0.325 0.545,-0.417c0.133,-0.092 0.392,-0.254 0.576,-0.359c0.213,-0.121 0.43,-0.234 0.651,-0.34c0.175,-0.082 0.448,-0.201 0.606,-0.264c0.158,-0.064 0.452,-0.167 0.652,-0.229c0.199,-0.063 0.379,-0.129 0.399,-0.147c0.019,-0.018 0.612,-1.113 1.095,-1.608l0.035,-0.44c0.018,-0.241 0.048,-0.548 0.064,-0.681c0.017,-0.134 0.058,-0.352 0.091,-0.485c0.043,-0.157 0.1,-0.309 0.172,-0.455c0.079,-0.153 0.189,-0.291 0.399,-0.5c0.247,-0.246 0.331,-0.309 0.577,-0.428c0.158,-0.077 0.384,-0.162 0.5,-0.188c0.117,-0.027 0.246,-0.055 0.288,-0.062c0.042,-0.008 0.239,-0.009 0.439,-0.003Zm-2.765,4.248c-0.086,0.149 -0.168,0.301 -0.246,0.456c-0.068,0.137 -0.121,0.256 -0.117,0.263c0.004,0.008 0.314,0.097 0.689,0.199c0.375,0.102 0.852,0.232 1.061,0.29c0.254,0.072 0.506,0.149 0.757,0.229c0.226,0.075 0.448,0.158 0.667,0.249l0.288,0.125c0.27,0.54 0.414,0.902 0.495,1.152c0.122,0.39 0.236,0.782 0.341,1.177c0.107,0.398 0.2,0.736 0.209,0.751c0.008,0.016 0.24,-0.034 0.515,-0.111c0.18,-0.048 0.359,-0.099 0.538,-0.152c0.028,-0.011 0.019,-0.079 -0.04,-0.279c-0.091,-0.33 -0.178,-0.661 -0.26,-0.993c-0.12,-0.478 -0.172,-0.737 -0.153,-0.757c0.02,-0.02 0.108,0.072 0.261,0.273c0.128,0.166 0.418,0.571 0.647,0.9c0.247,0.355 0.428,0.587 0.446,0.573c0.017,-0.013 0.204,-0.149 0.417,-0.301l0.386,-0.278c-0.171,-0.23 -0.358,-0.448 -0.56,-0.652c-0.15,-0.15 -2.506,-2.478 -2.53,-2.485c-0.026,-0.006 -3.472,-0.807 -3.55,-0.817l-0.141,-0.018l-0.12,0.206Zm-0.454,2.561c0,0 -1.541,1.278 -1.649,1.31c-0.109,0.032 -2.298,0.462 -2.297,0.47c0,0.008 0.117,0.233 0.259,0.5c0.143,0.267 0.295,0.58 0.338,0.697c0.065,0.172 0.079,0.26 0.076,0.47c-0.002,0.141 -0.024,0.4 -0.049,0.575c-0.025,0.175 -0.121,0.652 -0.213,1.061c-0.093,0.408 -0.165,0.744 -0.161,0.748c0.004,0.003 0.164,-0.05 0.356,-0.117c0.191,-0.067 0.71,-0.251 1.151,-0.407l0.803,-0.285c1.08,0.724 1.544,1.024 1.727,1.133c0.23,0.137 0.339,0.187 0.352,0.162c0.01,-0.021 0.027,-0.256 0.038,-0.522c0.01,-0.267 0.034,-0.744 0.053,-1.061l0.034,-0.575c1.452,-1.175 1.873,-1.522 1.873,-1.531c-0.001,-0.008 -0.291,-0.143 -0.646,-0.3c-0.354,-0.156 -1.091,-0.544 -1.232,-0.637c-0.209,-0.138 -0.265,-0.193 -0.314,-0.305c-0.034,-0.075 -0.159,-0.417 -0.28,-0.761l-0.219,-0.625Z" style="fill-opacity:0.54;"/></svg>
