<svg viewBox="0 0 479 529" height="16" xmlns="http://www.w3.org/2000/svg" fill-rule="evenodd" clip-rule="evenodd" stroke-linejoin="round" stroke-miterlimit="2">
    <path fill="rgba(0, 0, 0, 0.54)" d="M316.5.5c10.12.32 13.49.86 21.5 3.5 5.22 1.72 12.2 4.76 15.5 6.75 3.3 2 8.72 6.35 12.04 9.69 3.31 3.33 7.67 8.98 9.67 12.56 2 3.57 4.32 8.3 5.16 10.5.83 2.2 1.97 6.47 3.56 15l9.27 5.5a108.5 108.5 0 0117.62 13.5c6.73 6.44 9.12 9.56 12.26 16a54.23 54.23 0 015.03 15.5c.61 4.12.84 10.31.5 13.75a44.24 44.24 0 01-2.95 11.5c-1.53 3.42-4.58 7.35-8.75 11.27-4.58 4.3-9.4 7.48-16.91 11.15-5.78 2.83-13.78 6.65-17.78 8.49-4.01 1.84-7.27 3.68-7.25 4.09.02.41 3.52 3.08 7.78 5.92S460.53 250.76 467 262l-1.46 6.25c-.8 3.44-1.75 9.62-2.12 13.75-.38 4.33-.13 11.51.58 17 .68 5.22 3.16 16.7 5.51 25.5 2.35 8.8 5.21 20.5 6.35 26 1.14 5.5 2.36 13.82 2.72 18.5.41 5.45.07 13.35-.94 22-.87 7.42-2.87 18-4.45 23.5a137.25 137.25 0 01-7.64 19.5 169.18 169.18 0 01-9.91 16.92 156.62 156.62 0 01-11.74 14.5A162 162 0 01429.1 479a226.78 226.78 0 01-19.4 13.27 203.02 203.02 0 01-21.7 11.16 296.15 296.15 0 01-22 7.97 321.38 321.38 0 01-26.5 6.55 793.44 793.44 0 01-28 4.97c-7.15 1.09-19.75 2.78-28 3.75-11.56 1.36-23.04 1.78-50 1.8-22.14.02-39.41-.45-47-1.27a634.5 634.5 0 01-24.5-3.28 445.34 445.34 0 01-28.5-5.86c-8.8-2.14-21.4-5.68-28-7.89-6.6-2.2-17.18-6.26-23.5-9.01a281.1 281.1 0 01-18.5-8.87 133.76 133.76 0 01-12.5-7.93 172.45 172.45 0 01-10.91-8.97A114.95 114.95 0 0129.5 464a182.23 182.23 0 01-9.27-13 127.64 127.64 0 01-7.53-14.5c-1.89-4.4-4.57-11.6-5.96-16-1.39-4.4-3.34-12.5-4.34-18C1.07 395.16.6 387.59.62 374c.02-16.15.37-20.12 2.7-31.25a205.51 205.51 0 016.21-22.5c1.94-5.36 6.37-15.6 9.83-22.75s8.91-17.05 12.11-22c3.2-4.95 8.55-12.6 11.9-17 3.35-4.4 11.28-13.35 17.61-19.88 6.34-6.54 16.02-15.58 21.52-20.09s13.6-10.7 18-13.75c4.4-3.05 12.95-8.38 19-11.85a351.5 351.5 0 0121.5-11.22c5.77-2.7 14.77-6.63 20-8.72 5.22-2.1 14.9-5.5 21.5-7.56 6.6-2.06 12.53-4.24 13.17-4.84.64-.6 20.23-36.73 36.16-53.09l1.14-14.5c.62-7.98 1.58-18.1 2.12-22.5.55-4.4 1.91-11.6 3.02-16a85.14 85.14 0 015.65-15c2.62-5.08 6.24-9.61 13.18-16.52 8.17-8.13 10.94-10.18 19.06-14.13 5.22-2.54 12.65-5.33 16.5-6.2 3.85-.88 8.12-1.8 9.5-2.05 1.37-.26 7.9-.3 14.5-.1zm-91.28 140.2a315.15 315.15 0 00-8.1 15.05c-2.27 4.54-4.01 8.45-3.87 8.7.14.25 10.37 3.2 22.75 6.56 12.37 3.36 28.12 7.67 35 9.59a749.49 749.49 0 0125 7.56 309.78 309.78 0 0122 8.21l9.5 4.13c8.91 17.82 13.69 29.75 16.36 38a967.64 967.64 0 0111.25 38.87c3.52 13.14 6.61 24.29 6.89 24.79.27.5 7.92-1.15 17-3.66a827.86 827.86 0 0017.75-5.03c.94-.36.62-2.61-1.31-9.22a1277.1 1277.1 0 01-8.58-32.75c-3.97-15.79-5.69-24.34-5.04-25 .65-.66 3.56 2.39 8.61 9 4.2 5.5 13.8 18.87 21.35 29.7 8.16 11.73 14.12 19.39 14.72 18.93.55-.43 6.74-4.91 13.75-9.95L453 265a204.02 204.02 0 00-18.48-21.51c-4.96-4.96-82.7-81.78-83.52-82-.83-.21-114.59-26.66-117.15-26.99l-4.66-.6-3.97 6.8zm-14.98 84.54s-50.86 42.18-54.43 43.25c-3.58 1.06-75.83 15.23-75.82 15.51.01.27 3.87 7.7 8.57 16.5s9.72 19.15 11.16 23c2.12 5.69 2.59 8.6 2.5 15.5-.06 4.67-.79 13.22-1.62 19-.83 5.77-4 21.52-7.05 35-3.04 13.47-5.43 24.58-5.29 24.69.13.1 5.41-1.63 11.74-3.85 6.32-2.22 23.42-8.27 38-13.44l26.5-9.41c35.65 23.92 50.95 33.81 57 37.42 7.6 4.52 11.19 6.17 11.62 5.32.34-.68.9-8.43 1.25-17.23.34-8.8 1.13-24.55 1.74-35l1.12-19c47.94-38.75 61.84-50.23 61.82-50.5-.03-.28-9.61-4.73-21.3-9.91-11.69-5.17-36.03-17.95-40.66-21.02-6.91-4.58-8.76-6.37-10.39-10.07-1.1-2.48-5.25-13.78-9.23-25.13l-7.23-20.63z"/>
</svg>