<?xml version="1.0" standalone="no"?>
<!DOCTYPE svg PUBLIC "-//W3C//DTD SVG 20010904//EN"
 "http://www.w3.org/TR/2001/REC-SVG-20010904/DTD/svg10.dtd">
<svg version="1.0" xmlns="http://www.w3.org/2000/svg"
 width="288.000000pt" height="288.000000pt" viewBox="0 0 288.000000 288.000000"
 preserveAspectRatio="xMidYMid meet">
<metadata>
Created by potrace 1.11, written by Peter Selinger 2001-2013
</metadata>
<g transform="translate(0.000000,288.000000) scale(0.100000,-0.100000)"
fill="#000000" stroke="none">
<path d="M1440 2820 l0 -60 -60 0 -60 0 0 -120 0 -120 60 0 60 0 0 -60 0 -60
60 0 60 0 0 -60 0 -60 -60 0 -60 0 0 -120 0 -120 -120 0 -120 0 0 60 0 60
-180 0 -180 0 0 -60 0 -60 -180 0 -180 0 0 -60 0 -60 -60 0 -60 0 0 -60 0 -60
-60 0 -60 0 0 -60 0 -60 -60 0 -60 0 0 -120 0 -120 -60 0 -60 0 0 -300 0 -300
60 0 60 0 0 -180 0 -180 -60 0 -60 0 0 -120 0 -120 240 0 240 0 0 -60 0 -60
180 0 180 0 0 -60 0 -60 240 0 240 0 0 60 0 60 120 0 120 0 0 60 0 60 60 0 60
0 0 60 0 60 60 0 60 0 0 60 0 60 60 0 60 0 0 180 0 180 60 0 60 0 0 120 0 120
60 0 60 0 0 -60 0 -60 120 0 120 0 0 -120 0 -120 60 0 60 0 0 -60 0 -60 120 0
120 0 0 60 0 60 60 0 60 0 0 240 0 240 -60 0 -60 0 0 60 0 60 -60 0 -60 0 0
60 0 60 -120 0 -120 0 0 60 0 60 -60 0 -60 0 0 240 0 240 60 0 60 0 0 180 0
180 -60 0 -60 0 0 120 0 120 -60 0 -60 0 0 60 0 60 -120 0 -120 0 0 60 0 60
-240 0 -240 0 0 -60z m-120 -960 l0 -60 120 0 120 0 0 -60 0 -60 60 0 60 0 0
-60 0 -60 60 0 60 0 0 -60 0 -60 -180 0 -180 0 0 -120 0 -120 60 0 60 0 0
-180 0 -180 -60 0 -60 0 0 60 0 60 -120 0 -120 0 0 -120 0 -120 -60 0 -60 0 0
-60 0 -60 -360 0 -360 0 0 60 0 60 -60 0 -60 0 0 360 0 360 60 0 60 0 0 120 0
120 60 0 60 0 0 60 0 60 120 0 120 0 0 60 0 60 300 0 300 0 0 -60z"/>
<path d="M840 1260 l0 -60 60 0 60 0 0 -60 0 -60 60 0 60 0 0 -60 0 -60 60 0
60 0 0 120 0 120 -60 0 -60 0 0 60 0 60 -120 0 -120 0 0 -60z"/>
</g>
</svg>
